<?xml version="1.0" encoding="utf-8"?>
<svg width="1980" height="1140" viewBox="0 0 1980 1140" xmlns="http://www.w3.org/2000/svg">
  <defs>
    <filter id="Union_1" x="0" y="0" width="1980" height="1140" filterUnits="userSpaceOnUse">
      <feOffset dy="3" input="SourceAlpha"/>
      <feGaussianBlur stdDeviation="10" result="blur"/>
      <feFlood flood-opacity="0.161"/>
      <feComposite operator="in" in2="blur"/>
      <feComposite in="SourceGraphic"/>
    </filter>
  </defs>
  <g transform="matrix(1.031249, 0, 0, 1.055556, -30.937483, -28.5)" filter="url(#Union_1)" style="">
    <path id="Union_1-2" data-name="Union 1" d="M-105.754-90l.319-34.971,34.208-19.75,1.227.693V-90Zm-79,0,.318-34.971,34.208-19.75,33.853,19.137L-116.7-90Zm-79,0,.318-34.971,34.208-19.75,33.854,19.137L-195.7-90Zm-79,0,.318-34.971,34.208-19.75,33.854,19.137L-274.7-90Zm-1458.982,0,.3-32.972,34.208-19.75,33.854,19.137L-1733.678-90Zm-79,0,.3-32.972,34.208-19.75,33.853,19.137L-1812.678-90Zm-79,0,.3-32.972,34.208-19.75,33.854,19.137L-1891.679-90ZM-1990-90v-44.679l19.627,11.094L-1970.678-90Zm148.712-59.585.354-38.887,34.208-19.75,33.854,19.137-.354,38.887-34.208,19.75Zm-79,0,.354-38.887,34.208-19.75,33.854,19.137-.355,38.887-34.208,19.75ZM-1990-144.334v-49.3l25.273-14.591,33.854,19.137-.355,38.887-34.207,19.75Zm1844.711-7.25.354-38.887,34.208-19.75,33.854,19.137-.354,38.887-34.208,19.75Zm-79,0,.354-38.887,34.208-19.75,33.854,19.137-.355,38.887-34.208,19.75Zm-79,0,.354-38.887,34.208-19.75,33.854,19.137-.355,38.887-34.207,19.75Zm-1656.5-63.5.354-38.886,34.208-19.75,33.854,19.137-.355,38.887-34.208,19.75Zm1854-2,.355-38.886,34.208-19.751,1.227.693v75.964l-1.935,1.117Zm-79,0,.354-38.886,34.208-19.751,33.853,19.137-.354,38.887-34.208,19.75Zm-158,0,.354-38.886,34.208-19.751,33.854,19.137-.354,38.887-34.208,19.75ZM-1990-265.679l19.627,11.094-.354,38.887L-1990-204.57Zm0-9.654v-49.3l25.273-14.592,33.854,19.138-.355,38.886-34.207,19.751Zm1844.711-7.251.354-38.886,34.208-19.75,33.854,19.137-.354,38.887-34.208,19.75Zm-158,0,.354-38.886,34.208-19.75,33.854,19.137-.355,38.887-34.207,19.75Zm-1498.5-63.5.354-38.887,34.208-19.75,33.854,19.137-.354,38.886-34.208,19.75Zm-79,0,.354-38.887,34.208-19.75,33.853,19.137-.354,38.886-34.208,19.75Zm-79,0,.354-38.887,34.208-19.75,33.854,19.137-.355,38.886-34.208,19.75Zm1854-2,.355-38.887,34.208-19.75,1.227.693v75.964l-1.935,1.117ZM-1990-396.679l19.627,11.094-.354,38.886L-1990-335.57Zm148.712-14.906.354-38.887,34.208-19.75,33.854,19.137-.354,38.887-34.208,19.75ZM-1990-406.334v-49.3l25.273-14.591,33.854,19.137-.355,38.887-34.207,19.75Zm1844.711-7.25.354-38.887,34.208-19.75,33.854,19.137-.354,38.887-34.208,19.75Zm-79,0,.354-38.887,34.208-19.75,33.854,19.137-.355,38.887-34.208,19.75Zm-1735.5-63.5.354-38.886,34.208-19.751,33.854,19.137-.355,38.887-34.208,19.75Zm1854-2,.355-38.887,34.208-19.75,1.227.693v75.964l-1.935,1.117Zm-79,0,.354-38.887,34.208-19.75,33.853,19.137-.354,38.887-34.208,19.75ZM-1990-527.679l19.627,11.094-.354,38.887L-1990-466.57Zm69.711-14.906.354-38.886,34.208-19.75,33.854,19.138-.355,38.886-34.208,19.75ZM-1990-537.333v-49.3l25.273-14.592,33.854,19.138-.355,38.886-34.207,19.75Zm1844.711-7.251.354-38.886,34.208-19.751,33.854,19.137-.354,38.887-34.208,19.75Zm-1814.5-63.5.354-38.887,34.208-19.75,33.854,19.137-.355,38.886-34.208,19.751Zm1854-2,.355-38.886,34.208-19.75,1.227.694v75.964l-1.935,1.117Zm-79,0,.354-38.886,34.208-19.75,33.853,19.138-.354,38.886-34.208,19.75ZM-1990-658.679l19.627,11.094-.354,38.886L-1990-597.57Zm0-9.655v-49.3l25.273-14.591,33.854,19.137-.355,38.887-34.207,19.75Zm1844.711-7.25.354-38.887,34.208-19.75,33.854,19.137-.354,38.886-34.208,19.751Zm-79,0,.354-38.887,34.208-19.75,33.854,19.137-.355,38.886-34.208,19.751Zm-1735.5-63.5.354-38.886,34.208-19.75,33.854,19.137-.355,38.887-34.208,19.75Zm1854-2,.355-38.887,34.208-19.75,1.227.693v75.964l-1.935,1.117Zm-79,0,.354-38.887,34.208-19.75,33.853,19.137-.354,38.887-34.208,19.75ZM-1990-789.679l19.627,11.094-.354,38.887L-1990-728.57Zm69.711-14.906.354-38.886,34.208-19.75,33.854,19.137-.355,38.887-34.208,19.75ZM-1990-799.333v-49.3l25.273-14.592,33.854,19.137-.355,38.887-34.207,19.75Zm1844.711-7.251.354-38.886,34.208-19.75,33.854,19.137-.354,38.887-34.208,19.75Zm-158,0,.354-38.886,34.208-19.75,33.854,19.137-.355,38.887-34.207,19.75Zm197.5-65.5.355-38.886,34.208-19.75,1.227.693v75.964l-1.935,1.117Zm-79,0,.354-38.886,34.208-19.75,33.853,19.137-.354,38.887-34.208,19.75Zm-79,0,.354-38.886,34.208-19.75,33.854,19.137-.355,38.887-34.208,19.75Zm-79,0,.354-38.886,34.208-19.75,33.854,19.137-.354,38.887-34.208,19.75ZM-1990-920.679l19.627,11.1-.354,38.886L-1990-859.57Zm148.712-14.9.354-38.887,34.208-19.75,33.854,19.137-.354,38.886-34.208,19.75ZM-1990-930.334v-49.3l25.273-14.591,33.854,19.137-.355,38.886-34.207,19.75Zm1844.711-7.25.354-38.887,34.208-19.75,33.854,19.137-.354,38.886-34.208,19.75Zm-1656.5-63.5.354-38.887,34.208-19.75,33.854,19.137-.354,38.887-34.208,19.75Zm-158,0,.354-38.887,34.208-19.75,33.854,19.137-.355,38.887-34.208,19.75Zm1854-2,.355-38.887,34.208-19.75,1.227.693v75.964l-1.935,1.117Zm-79,0,.354-38.887,34.208-19.75,33.853,19.137-.354,38.887-34.208,19.75ZM-1990-1051.679l19.627,11.094-.354,38.887L-1990-990.57Zm148.712-14.906.354-38.886,34.208-19.75,33.854,19.137-.354,38.887-34.208,19.75Zm-79,0,.354-38.886,34.208-19.75,33.854,19.137-.355,38.887-34.208,19.75Zm-69.711,5.251v-49.3l25.273-14.592,33.854,19.137-.355,38.887-34.207,19.75Zm1844.711-7.25.354-38.887,34.208-19.75,33.854,19.137-.354,38.887-34.208,19.75Zm-79,0,.354-38.887,34.208-19.75,33.854,19.137-.355,38.887-34.208,19.75Zm-79,0,.354-38.887,34.208-19.75,33.854,19.137-.355,38.887-34.207,19.75Zm-1498.5-63.5.346-37.915h68.056l-.339,37.3-34.208,19.75Zm-79,0,.345-37.915h68.056l-.339,37.3-34.208,19.75Zm-79,0,.345-37.915h68.057l-.34,37.3-34.208,19.75Zm1854-2,.328-35.915H-70v53.935l-1.935,1.117Zm-79,0,.327-35.915h68.056l-.321,35.3-34.208,19.75Zm-79,0,.327-35.915h68.057l-.322,35.3-34.208,19.75Zm-79,0,.327-35.915h68.057l-.321,35.3-34.208,19.75ZM-1990-1170h19.613l-.339,37.3L-1990-1121.57Z" transform="translate(2020 1197)" fill="#44475a"/>
  </g>
</svg>