<?xml version="1.0" encoding="utf-8"?>
<svg width="183.125" height="202.678" viewBox="0 0 183.125 202.678" xmlns:xlink="http://www.w3.org/1999/xlink" xmlns="http://www.w3.org/2000/svg">
  <defs>
    <filter id="a" x="0" y="0" width="183.125" height="202.678" filterUnits="userSpaceOnUse">
      <feOffset dy="3" input="SourceAlpha"/>
      <feGaussianBlur stdDeviation="10" result="b"/>
      <feFlood flood-opacity="0.302"/>
      <feComposite operator="in" in2="b"/>
      <feComposite in="SourceGraphic"/>
    </filter>
    <style>
      g {
        fill: #bd93f9;
        transition: 0.2s;
        transform-origin: 50% 50%;
      }

      g:hover {
        fill: #8be9fd;
        transform: scale(1.1);
        transition: 0.2s;
      }
    </style>
  </defs>
  <g transform="matrix(1, 0, 0, 1, 0, 0)" filter="url(#a)">
    <a href="/how-to-play" target="_parent">
      <rect x="64.851" y="67.647" width="52.739" height="72.132" style="fill: rgb(40, 42, 54);"/>
      <path d="M90.932,159.021l-60.621-35L30.75,53.26,91.811,17.5l60.622,35-.439,70.761L90.932,159.021Zm-1.747-52.092a10.268,10.268,0,0,0-6.823,2.156,7.054,7.054,0,0,0-2.551,5.636,7.367,7.367,0,0,0,2.61,5.715,9.861,9.861,0,0,0,6.763,2.314,10.03,10.03,0,0,0,6.862-2.255A7.39,7.39,0,0,0,98.6,114.72a7.01,7.01,0,0,0-2.591-5.636A10.362,10.362,0,0,0,89.186,106.929ZM87.762,77.385a5.445,5.445,0,0,1,3.421,1.028,3.114,3.114,0,0,1,1.325,2.532,5.6,5.6,0,0,1-.375,2.136,6.812,6.812,0,0,1-1.266,1.9,51.1,51.1,0,0,1-4.014,3.639c-3.175,2.729-4.785,6.548-4.785,11.352v3.48H95.355v-1.384a7.509,7.509,0,0,1,1.187-4.311,20.222,20.222,0,0,1,4.073-4.035c5.642-4.435,8.5-9.638,8.5-15.464,0-4.829-1.723-8.562-5.122-11.094s-8.382-3.817-14.811-3.817a33.59,33.59,0,0,0-7.851,1.068,27.566,27.566,0,0,0-6.942,2.531V82.487a29.874,29.874,0,0,1,6.843-3.826A18.319,18.319,0,0,1,87.762,77.385Z" transform="translate(0.19 10.08)" id="help" stroke="rgba(0,0,0,0)" stroke-width="1"/>
    </a>
  </g>
</svg>