<svg xmlns="http://www.w3.org/2000/svg" xmlns:xlink="http://www.w3.org/1999/xlink" width="501.125" height="202.678" viewBox="0 0 501.125 202.678"><defs><filter id="a" x="0" y="0" width="183.125" height="202.678" filterUnits="userSpaceOnUse"><feOffset dy="3" input="SourceAlpha"/><feGaussianBlur stdDeviation="10" result="b"/><feFlood flood-opacity="0.302"/><feComposite operator="in" in2="b"/><feComposite in="SourceGraphic"/></filter><filter id="c" x="159" y="0" width="183.125" height="202.678" filterUnits="userSpaceOnUse"><feOffset dy="3" input="SourceAlpha"/><feGaussianBlur stdDeviation="10" result="d"/><feFlood flood-opacity="0.302"/><feComposite operator="in" in2="d"/><feComposite in="SourceGraphic"/></filter><filter id="e" x="318" y="0" width="183.125" height="202.678" filterUnits="userSpaceOnUse"><feOffset dy="3" input="SourceAlpha"/><feGaussianBlur stdDeviation="10" result="f"/><feFlood flood-opacity="0.302"/><feComposite operator="in" in2="f"/><feComposite in="SourceGraphic"/></filter></defs><g transform="translate(-709.438 -88.161)"><g transform="matrix(1, 0, 0, 1, 709.44, 88.16)" filter="url(#a)"><path d="M90.932,159.021l-60.621-35L30.75,53.26,91.811,17.5l60.622,35-.439,70.761L90.932,159.021ZM79.238,98.637h24.219v26.123H124.55V54.741H103.457V80.669H79.238V54.741H58.145v70.02H79.238V98.638Z" transform="translate(0.19 10.08)" fill="#ff79c6" stroke="rgba(0,0,0,0)" stroke-width="1"/></g><g transform="matrix(1, 0, 0, 1, 709.44, 88.16)" filter="url(#c)"><path d="M90.932,159.021l-60.621-35L30.75,53.26,91.811,17.5l60.622,35-.439,70.761L90.932,159.021ZM70.669,54.741v70.02h45.214v-16.5H91.762v-10.3h21.143V81.45H91.762V71.245h22.51v-16.5Z" transform="translate(159.19 10.08)" fill="#ffb86c" stroke="rgba(0,0,0,0)" stroke-width="1"/></g><g transform="matrix(1, 0, 0, 1, 709.44, 88.16)" filter="url(#e)"><path d="M90.932,159.021l-60.621-35L30.75,53.26,91.811,17.5l60.622,35-.439,70.761L90.932,159.021Zm.342-59.846h.2c.1.734.231,1.668.415,2.857a13.457,13.457,0,0,0,1.1,3.54l8.691,19.19h24.8l-20.6-35.3,19.678-34.717H102.065l-7.91,18.409a27.864,27.864,0,0,0-1.807,6.934h-.2a45.118,45.118,0,0,0-1.709-6.836L83.657,54.741H58.169L77.261,89.849l-21,34.912h25.1l8.105-18.8a21.213,21.213,0,0,0,1.123-3.711c.261-1.269.491-2.3.684-3.075Z" transform="translate(318.19 10.08)" fill="#50fa7b" stroke="rgba(0,0,0,0)" stroke-width="1"/></g></g></svg>