<svg xmlns="http://www.w3.org/2000/svg" xmlns:xlink="http://www.w3.org/1999/xlink" width="355.291" height="401.96" viewBox="0 0 355.291 401.96"><defs><filter id="a" x="0" y="0" width="355.291" height="401.96" filterUnits="userSpaceOnUse"><feOffset dy="3" input="SourceAlpha"/><feGaussianBlur stdDeviation="10" result="b"/><feFlood flood-opacity="0.302"/><feComposite operator="in" in2="b"/><feComposite in="SourceGraphic"/></filter></defs><g transform="matrix(1, 0, 0, 1, 0, 0)" filter="url(#a)"><g transform="translate(-43.4 -15.37)" fill="#bd93f9"><path d="M 220.1853637695313 383.7560424804688 L 73.89735412597656 299.2969665527344 L 74.74860382080078 128.8924713134766 L 221.8973541259766 42.9528923034668 L 368.1853637695313 127.4128341674805 L 367.3341674804688 297.8173828125 L 220.1853637695313 383.7560424804688 Z M 187.1347351074219 154.480712890625 L 187.1347351074219 155.3472137451172 L 187.1347351074219 271.9044189453125 L 187.1347351074219 272.7709350585938 L 187.8849487304688 272.3373413085938 L 288.7200317382813 214.0587615966797 L 289.4690246582031 213.6258392333984 L 288.7200317382813 213.1929168701172 L 187.8849487304688 154.914306640625 L 187.1347351074219 154.480712890625 Z" stroke="none"/><path d="M 220.1839599609375 383.1778259277344 L 366.8355712890625 297.5295104980469 L 367.6839294433594 127.7006988525391 L 221.8987731933594 43.53105926513672 L 75.24715423583984 129.1802673339844 L 74.39881134033203 299.0091247558594 L 220.1839599609375 383.1778259277344 M 186.6347351074219 153.6142272949219 L 188.1351318359375 154.4813690185547 L 288.97021484375 212.760009765625 L 290.4682312011719 213.6258239746094 L 288.97021484375 214.4916381835938 L 188.1351318359375 272.7702331542969 L 186.6347351074219 273.6373596191406 L 186.6347351074219 271.9044189453125 L 186.6347351074219 155.3471832275391 L 186.6347351074219 153.6142272949219 M 220.1865997314453 384.3343200683594 L 220.1868133544922 384.3341979980469 L 73.39591217041016 299.5848388671875 L 74.25 128.6045989990234 L 221.8959045410156 42.37469100952148 L 368.6868286132813 127.1250076293945 L 367.8327331542969 298.1051940917969 L 220.1868133544922 384.3341979980469 L 220.1865997314453 384.3343200683594 Z M 187.6347351074219 155.3471832275391 L 187.6347351074219 271.9044189453125 L 288.4698181152344 213.6258239746094 L 187.6347351074219 155.3471832275391 Z" stroke="none"/></g></g></svg>